:SAMPLES-PER-SECOND 30
:FULLY-SPECIFIED
:DEGREES
384
root  -3.16845 38.7402 14.7035 -171.517 -54.1548 177.63
RightUpLeg  -3.46486 -2.63923 -14.507
RightLeg  26.9805 -3.79408 -2.32051
RightFoot  -2.15283 -2.10771 25.6451
RightToes  -1.39699e-009 0 -3.6325e-017
Spine  16.5969 4.15312 -1.5383
Spine1  16.3467 0.593424 10.5043
HEad  -29.7354 -43.9107 22.2547
LeftShoulder1  1.0431 -5.3183 -3.83959
LeftArm  15.911 -29.8729 -58.7223
LeftForeArm  70.6769 -79.238 -84.1846
LeftHand  -0.351489 2.79893 15.4821
RightShoulder  1.63475 5.43748 11.128
RightArm  21.2344 2.04696 59.1406
RightForeArm  39.2131 77.8186 93.447
RightHand  -0.0733195 -4.40288 -6.43056
LeftUpLeg  -27.5885 -8.47448 2.12802
LeftLeg  19.7303 -9.36842 -3.38478
LeftFoot  0.808487 0.696622 -6.58935
LeftToes  3.40148e-010 1.80944e-010 1.01921e-010
385
root  -2.96267 38.7686 14.6702 -171.453 -54.3706 177.549
RightUpLeg  -2.93982 -0.662294 -14.187
RightLeg  25.8809 -4.00205 -2.33417
RightFoot  -2.38705 -2.13861 26.6523
RightToes  -1.39699e-009 0 -3.6325e-017
Spine  16.5997 3.84453 -1.86497
Spine1  15.8139 0.12232 10.8632
HEad  -29.1314 -43.5334 21.5365
LeftShoulder1  0.969398 -5.10318 -3.20477
LeftArm  15.1473 -33.5473 -59.0728
LeftForeArm  79.0116 -79.3023 -92.1767
LeftHand  -0.447779 2.33434 16.8331
RightShoulder  1.6403 5.55953 10.9218
RightArm  20.9444 1.58499 59.3802
RightForeArm  46.7651 77.6167 100.984
RightHand  -0.0771581 -4.29175 -6.18795
LeftUpLeg  -27.5579 -9.32781 2.53036
LeftLeg  18.9622 -8.71282 -2.99316
LeftFoot  1.48416 0.73122 -6.58205
LeftToes  3.40148e-010 1.80944e-010 1.01921e-010
386
root  -2.7202 38.7262 14.634 -171.32 -54.8234 177.246
RightUpLeg  -2.28783 0.751516 -13.7944
RightLeg  25.0581 -4.96193 -2.75049
RightFoot  -3.64225 -1.93204 27.8375
RightToes  -1.39699e-009 0 -3.6325e-017
Spine  16.5912 3.51313 -2.07039
Spine1  15.2834 -0.377762 11.3086
HEad  -28.5863 -43.3058 20.8501
LeftShoulder1  0.889711 -4.8691 -2.48351
LeftArm  13.725 -36.9544 -58.9089
LeftForeArm  87.6424 -79.1975 -99.8576
LeftHand  -0.591297 1.689 18.4537
RightShoulder  1.64437 5.67184 10.724
RightArm  20.2542 0.84919 59.5832
RightForeArm  54.7729 77.1173 109.343
RightHand  -0.0880506 -4.18851 -6.81993
LeftUpLeg  -27.7909 -9.80927 2.71046
LeftLeg  18.8725 -8.62999 -2.94835
LeftFoot  1.87145 0.762731 -6.68008
LeftToes  3.40148e-010 1.80944e-010 1.01921e-010
387
root  -2.44887 38.6034 14.6198 -171.28 -55.2423 176.902
RightUpLeg  -1.84824 0.758911 -13.5456
RightLeg  24.8771 -5.31606 -2.90901
RightFoot  -5.74303 -1.4716 28.6856
RightToes  -1.39699e-009 0 -3.6325e-017
Spine  16.6596 3.20019 -1.89215
Spine1  14.7906 -0.722033 11.5337
HEad  -27.9923 -43.1516 19.9265
LeftShoulder1  0.818779 -4.64813 -1.8226
LeftArm  11.7721 -39.9008 -58.4577
LeftForeArm  95.638 -78.9121 -107.07
LeftHand  -0.730602 1.12802 19.8594
RightShoulder  1.6441 5.78126 10.4846
RightArm  19.3202 -0.0410968 59.6911
RightForeArm  61.7027 76.3064 117.36
RightHand  -0.0978404 -4.2395 -8.14937
LeftUpLeg  -28.3868 -9.905 2.76638
LeftLeg  19.7504 -8.91676 -3.21284
LeftFoot  1.85684 0.768649 -6.73751
LeftToes  3.40148e-010 1.80944e-010 1.01921e-010
388
root  -2.1552 38.4281 14.6398 -171.478 -55.405 176.639
RightUpLeg  -1.82186 -0.324457 -13.6065
RightLeg  25.5807 -4.63125 -2.63643
RightFoot  -8.05798 -0.886425 28.3764
RightToes  -1.39699e-009 0 -3.6325e-017
Spine  16.8134 2.95428 -1.33066
Spine1  14.5932 -0.85861 11.4912
HEad  -27.5949 -42.9755 19.0149
LeftShoulder1  0.75728 -4.35103 -1.36419
LeftArm  9.51484 -42.2609 -58.1136
LeftForeArm  101.486 -78.462 -113.24
LeftHand  -0.799258 0.894468 20.5934
RightShoulder  1.64549 5.8761 10.301
RightArm  18.5184 -0.709082 59.577
RightForeArm  66.61 75.4201 123.443
RightHand  -0.142415 -3.86379 -9.70704
LeftUpLeg  -29.1381 -9.76124 2.79007
LeftLeg  21.228 -9.10153 -3.55642
LeftFoot  1.59273 0.7388 -6.59868
LeftToes  3.40148e-010 1.80944e-010 1.01921e-010
389
root  -1.85528 38.2298 14.6821 -171.917 -55.1754 176.533
RightUpLeg  -2.20821 -1.43011 -13.8828
RightLeg  26.9474 -3.24046 -2.01747
RightFoot  -10.1281 -0.366657 27.5816
RightToes  -1.39699e-009 0 -3.6325e-017
Spine  16.9438 2.85265 -0.655486
Spine1  14.7986 -0.825724 11.384
HEad  -27.3838 -42.7046 18.1645
LeftShoulder1  0.701877 -3.94331 -1.11842
LeftArm  7.38823 -43.7263 -58.279
LeftForeArm  104.783 -78.0121 -117.501
LeftHand  -0.836874 0.76451 20.9519
RightShoulder  1.66716 5.99839 10.303
RightArm  17.9419 -1.09283 59.0656
RightForeArm  69.8054 74.7319 127.199
RightHand  -0.24565 -2.85063 -10.8155
LeftUpLeg  -29.834 -9.3586 2.86285
LeftLeg  22.8509 -9.12138 -3.87036
LeftFoot  1.12274 0.703779 -6.50435
LeftToes  3.40148e-010 1.80944e-010 1.01921e-010
